<?xml version="1.0" encoding="UTF-8" standalone="no"?>
<!-- Created with Inkscape (http://www.inkscape.org/) -->

<svg
   width="210mm"
   height="297mm"
   viewBox="0 0 210 297"
   version="1.1"
   id="svg5"
   xml:space="preserve"
   inkscape:version="1.2.2 (732a01da63, 2022-12-09)"
   sodipodi:docname="hojita code.svg"
   xmlns:inkscape="http://www.inkscape.org/namespaces/inkscape"
   xmlns:sodipodi="http://sodipodi.sourceforge.net/DTD/sodipodi-0.dtd"
   xmlns:xlink="http://www.w3.org/1999/xlink"
   xmlns="http://www.w3.org/2000/svg"
   xmlns:svg="http://www.w3.org/2000/svg"><sodipodi:namedview
     id="namedview7"
     pagecolor="#ffffff"
     bordercolor="#000000"
     borderopacity="0.25"
     inkscape:showpageshadow="2"
     inkscape:pageopacity="0.0"
     inkscape:pagecheckerboard="0"
     inkscape:deskcolor="#d1d1d1"
     inkscape:document-units="mm"
     showgrid="false"
     inkscape:zoom="1.414741"
     inkscape:cx="414.2101"
     inkscape:cy="610.7125"
     inkscape:window-width="1920"
     inkscape:window-height="1017"
     inkscape:window-x="-8"
     inkscape:window-y="-8"
     inkscape:window-maximized="1"
     inkscape:current-layer="layer2" /><defs
     id="defs2"><linearGradient
       id="linearGradient3262"
       inkscape:swatch="solid"><stop
         style="stop-color:#000000;stop-opacity:1;"
         offset="0"
         id="stop3260" /></linearGradient><linearGradient
       id="linearGradient3189"
       inkscape:swatch="solid"><stop
         style="stop-color:#000000;stop-opacity:1;"
         offset="0"
         id="stop3187" /></linearGradient><linearGradient
       id="linearGradient3062"
       inkscape:swatch="solid"><stop
         style="stop-color:#000000;stop-opacity:1;"
         offset="0"
         id="stop3060" /></linearGradient><clipPath
       clipPathUnits="userSpaceOnUse"
       id="clipPath5577"><g
         inkscape:label="Clip"
         id="use5579" /></clipPath><clipPath
       clipPathUnits="userSpaceOnUse"
       id="clipPath5595"><g
         inkscape:label="Clip"
         id="use5597" /></clipPath><clipPath
       clipPathUnits="userSpaceOnUse"
       id="clipPath6037"><g
         inkscape:label="Clip"
         id="use6039" /></clipPath><clipPath
       clipPathUnits="userSpaceOnUse"
       id="clipPath6633"><use
         x="0"
         y="0"
         xlink:href="#g6629"
         id="use6635" /></clipPath><filter
       inkscape:collect="always"
       style="color-interpolation-filters:sRGB"
       id="filter6638"
       x="-0.23667613"
       y="-0.1499643"
       width="1.4733523"
       height="1.2999286"><feGaussianBlur
         inkscape:collect="always"
         stdDeviation="7.5983504"
         id="feGaussianBlur6640" /></filter><clipPath
       clipPathUnits="userSpaceOnUse"
       id="clipPath7383"><use
         x="0"
         y="0"
         xlink:href="#g7379"
         id="use7385"
         transform="translate(-0.1000051,0.1000051)" /></clipPath><filter
       inkscape:collect="always"
       style="color-interpolation-filters:sRGB"
       id="filter7388"
       x="-0.14113939"
       y="-0.13213535"
       width="1.2822788"
       height="1.2642707"><feGaussianBlur
         inkscape:collect="always"
         stdDeviation="1.0030909"
         id="feGaussianBlur7390" /></filter><clipPath
       clipPathUnits="userSpaceOnUse"
       id="clipPath7407"><use
         x="0"
         y="0"
         xlink:href="#g7403"
         id="use7409" /></clipPath><filter
       inkscape:collect="always"
       style="color-interpolation-filters:sRGB"
       id="filter7412"
       x="-0.24034247"
       y="-0.25685162"
       width="1.4806849"
       height="1.5137032"><feGaussianBlur
         inkscape:collect="always"
         stdDeviation="1.9334266"
         id="feGaussianBlur7414" /></filter><clipPath
       clipPathUnits="userSpaceOnUse"
       id="clipPath9692"><use
         x="0"
         y="0"
         xlink:href="#g9688"
         id="use9694" /></clipPath><filter
       inkscape:collect="always"
       style="color-interpolation-filters:sRGB"
       id="filter9697"
       x="-0.11307226"
       y="-0.22047176"
       width="1.2261445"
       height="1.4409435"><feGaussianBlur
         inkscape:collect="always"
         stdDeviation="0.69313009"
         id="feGaussianBlur9699" /></filter><clipPath
       clipPathUnits="userSpaceOnUse"
       id="clipPath9706"><use
         x="0"
         y="0"
         xlink:href="#g9702"
         id="use9708" /></clipPath><filter
       inkscape:collect="always"
       style="color-interpolation-filters:sRGB"
       id="filter9711"
       x="-0.12113801"
       y="-0.35682441"
       width="1.242276"
       height="1.7136488"><feGaussianBlur
         inkscape:collect="always"
         stdDeviation="0.88390525"
         id="feGaussianBlur9713" /></filter></defs><g
     inkscape:label="Capa 1"
     inkscape:groupmode="layer"
     id="layer1"
     style="display:inline" /><g
     inkscape:groupmode="layer"
     id="layer2"
     inkscape:label="Capa 2"
     style="display:inline"><g
       id="g7438"
       transform="translate(3.6001837,-15.200776)"><g
         id="g6631"
         clip-path="url(#clipPath6633)"
         transform="matrix(1,0,0,0.97697299,0,4.1263393)"><g
           inkscape:label="Clip"
           id="g6629"><path
             style="display:inline;fill:#44c985;fill-opacity:1;stroke-width:0.264583"
             d="m 104.93612,195.66844 c -0.54084,6.98958 1.5223,14.74102 -1.8344,27.90435 -0.75576,2.96372 -3.184154,6.31426 -6.483174,6.49323 -12.85119,0.69715 -23.93209,-14.07479 -26.35282,-26.83569 -2.06064,-10.86268 -1.78807,-22.50934 0.35149,-33.16737 1.93512,-9.63966 5.80021,-18.91207 10.40053,-27.60141 6.15154,-11.61937 18.75841,-31.54717 22.706544,-32.25018 4.3271,-0.77047 -2.07714,-0.47628 2.25209,-0.28285 6.50502,0.29065 16.52015,16.92929 22.64381,26.93275 6.80108,11.11007 12.99277,23.16388 15.20078,36.00183 2.25275,13.09805 4.08792,28.17266 -2.3457,39.80204 -5.12267,9.2597 -15.45459,20.37037 -25.85574,18.42104 -3.22245,-0.60393 -5.40029,-8.22053 -5.40029,-8.22053 l -0.80003,-23.40118 c -3.19173,-3.90494 -4.33485,-5.71185 -4.48309,-3.79603 z"
             id="path921"
             sodipodi:nodetypes="sssssassaaaaccs" /></g><path
           style="display:inline;opacity:0.796078;mix-blend-mode:normal;fill:#48c04b;fill-opacity:1;stroke-width:0.264583;filter:url(#filter6638)"
           d="m 107.95871,205.16787 c -0.54084,6.98958 1.5223,14.74102 -1.8344,27.90435 -0.75576,2.96372 -3.18414,6.31426 -6.483164,6.49323 -12.851194,0.69715 -23.932094,-14.07479 -26.352824,-26.83569 -2.06064,-10.86268 -1.78807,-22.50934 0.35149,-33.16737 1.93512,-9.63966 5.80021,-18.91207 10.40053,-27.60141 6.15154,-11.61936 18.758418,-31.54716 22.706538,-32.25017 4.3271,-0.77047 -2.07714,-0.47628 2.25209,-0.28285 6.50502,0.29065 16.52015,16.92929 22.64381,26.93275 6.80108,11.11006 12.99277,23.16387 15.20078,36.00182 2.25275,13.09805 4.08792,28.17266 -2.3457,39.80204 -5.12267,9.2597 -15.45459,20.37037 -25.85574,18.42104 -3.22245,-0.60393 -5.40029,-8.22053 -5.40029,-8.22053 L 112.4418,208.9639 c -3.19173,-3.90494 -4.33485,-5.71185 -4.48309,-3.79603 z"
           id="path921-5"
           sodipodi:nodetypes="sssssassaaaaccs"
           transform="matrix(1.0157332,0,0,0.99055265,-2.1370533,6.2422573)" /></g><g
         id="g4717"
         transform="translate(7.6003878,-5.6002853)"><ellipse
           style="opacity:1;fill:#000000;fill-opacity:1;stroke-width:0.264583"
           id="path2580"
           cx="87.791901"
           cy="157.4789"
           rx="5.0002551"
           ry="8.8004484" /><ellipse
           style="display:inline;fill:#000000;fill-opacity:1;stroke-width:0.264583"
           id="path2580-1"
           cx="111.72227"
           cy="157.74979"
           rx="5.0002551"
           ry="8.8004484"
           inkscape:transform-center-x="18.000918"
           inkscape:transform-center-y="-2.4001224" /><circle
           style="opacity:1;fill:#ebebeb;fill-opacity:1;stroke-width:0.264583"
           id="path2918"
           cx="109.32693"
           cy="152.69727"
           r="2.5457141" /><circle
           style="display:inline;fill:#ebebeb;fill-opacity:1;stroke-width:0.108676"
           id="path2918-4"
           cx="112.30573"
           cy="160.50819"
           r="1.0456376" /><circle
           style="display:inline;fill:#ebebeb;fill-opacity:1;stroke-width:0.108676"
           id="path2918-4-6"
           cx="87.504456"
           cy="160.00816"
           r="1.0456376" /><circle
           style="display:inline;fill:#ebebeb;fill-opacity:1;stroke-width:0.264583"
           id="path2918-5"
           cx="85.162628"
           cy="152.53691"
           r="2.5457141" /><path
           style="opacity:1;fill:#000000;fill-opacity:1;stroke-width:0.197184"
           d="m 92.140358,169.84566 c 1.096087,0.81085 14.468362,0.40543 14.468362,0.40543 0,0 -2.24385,5.46685 -4.82279,6.68951 -1.52672,0.7238 -3.665686,0.6375 -5.143825,-0.16793 -2.509871,-1.36761 -2.964046,-4.70011 -4.501747,-6.92701 z"
           id="path3588"
           sodipodi:nodetypes="ccsac" /></g><circle
         id="path4782"
         style="fill:#000000;stroke:#000000;stroke-width:0.264583"
         cx="151.99895"
         cy="151.38544"
         r="0.018838147" /><circle
         id="path4784"
         style="fill:#000000;stroke:#000000;stroke-width:0.264583"
         cx="152.84753"
         cy="152.09258"
         r="0.018838147" /><g
         id="g7381"
         clip-path="url(#clipPath7383)"><g
           inkscape:label="Clip"
           id="g7379"
           transform="translate(0.1000051,-0.1000051)"><path
             style="fill:#44c985;fill-opacity:1;stroke-width:0.296211"
             d="m 160.13093,143.16429 c 0.0496,-0.93397 -0.88762,-2.04706 -1.78317,-2.10183 -7.82007,-0.47821 -9.7314,15.47267 -17.52166,16.32968 0.66453,6.2261 18.52296,-5.76464 19.30483,-14.22785 z"
             id="path4788"
             sodipodi:nodetypes="cacc" /></g><path
           style="display:inline;mix-blend-mode:normal;fill:#48c04b;fill-opacity:1;stroke-width:0.255226;filter:url(#filter7388)"
           d="m 159.74679,144.48038 c 0.39128,-1.07464 0.28449,-2.5471 -0.20933,-2.78302 -4.31218,-2.05998 -11.6065,16.08838 -16.42011,15.58409 -2.03588,7.35528 12.8928,-3.12724 16.62944,-12.80107 z"
           id="path4788-1"
           sodipodi:nodetypes="cacc" /></g><g
         id="g7405"
         clip-path="url(#clipPath7407)"><g
           inkscape:label="Clip"
           id="g7403"><path
             style="display:inline;fill:#44c985;fill-opacity:1;stroke-width:0.296211"
             d="m 53.671776,143.05063 c -0.0496,-0.93397 0.88762,-2.04706 1.78317,-2.10183 7.82007,-0.47821 9.7314,15.47267 17.52166,16.32968 -0.66453,6.2261 -18.52296,-5.76464 -19.30483,-14.22785 z"
             id="path4788-7"
             sodipodi:nodetypes="cacc" /></g><path
           style="display:inline;mix-blend-mode:normal;fill:#48c04b;fill-opacity:1;stroke-width:0.296211;filter:url(#filter7412)"
           d="m 52.493121,144.79432 c -0.0496,-0.93397 0.88762,-2.04706 1.78317,-2.10183 7.82007,-0.47821 9.7314,15.47267 17.52166,16.32968 -0.66453,6.2261 -18.52296,-5.76464 -19.30483,-14.22785 z"
           id="path4788-7-5"
           sodipodi:nodetypes="cacc" /></g><g
         id="g9704"
         clip-path="url(#clipPath9706)"><g
           inkscape:label="Clip"
           id="g9702"><path
             style="display:inline;fill:#44c884;fill-opacity:1;stroke-width:0.298354"
             d="m 82.969086,236.36765 c -1.465521,-2.55275 -0.002,-4.15402 0.426045,-4.68834 5.258792,-6.56338 8.314885,4.81839 15.136328,-0.0801 3.248931,4.96522 -9.783218,10.32433 -15.562373,4.76851 z"
             id="path4788-7-8-6"
             sodipodi:nodetypes="cscc"
             inkscape:transform-center-x="6.1162143"
             inkscape:transform-center-y="2.5965388e-06" /></g><path
           style="display:inline;mix-blend-mode:normal;fill:#47c257;fill-opacity:1;stroke-width:0.246246;filter:url(#filter9711)"
           d="m 84.110685,235.05304 c -1.535679,-1.65948 -0.0021,-2.70043 0.446441,-3.04778 5.510542,-4.2667 8.712937,3.13232 15.860944,-0.0521 3.40448,3.22777 -10.251568,6.71161 -16.307385,3.0999 z"
           id="path4788-7-8"
           sodipodi:nodetypes="cscc"
           inkscape:transform-center-x="6.4090113"
           inkscape:transform-center-y="-1.2228536e-05" /></g><g
         id="g9690"
         clip-path="url(#clipPath9692)"><g
           inkscape:label="Clip"
           id="g9688"><path
             style="display:inline;fill:#44c984;fill-opacity:1;stroke-width:0.298354"
             d="m 131.59616,237.16769 c 1.46552,-2.55275 0.002,-4.15402 -0.42604,-4.68834 -5.25879,-6.56338 -8.31489,4.81839 -15.13634,-0.0801 -3.24894,4.96522 9.78323,10.32433 15.56238,4.76851 z"
             id="path4788-7-8-0-1"
             sodipodi:nodetypes="cscc"
             inkscape:transform-center-x="-6.1162109"
             inkscape:transform-center-y="2.5965388e-06" /></g><path
           style="display:inline;mix-blend-mode:normal;fill:#47c257;fill-opacity:1;stroke-width:0.254266;filter:url(#filter9697)"
           d="m 129.5041,235.69685 c 1.29012,-2.10612 0.002,-3.42723 -0.37506,-3.86807 -4.62941,-5.41504 -7.31975,3.97536 -13.32481,-0.0661 -2.8601,4.0965 8.61237,8.51797 13.69987,3.9342 z"
           id="path4788-7-8-0"
           sodipodi:nodetypes="cscc"
           inkscape:transform-center-x="-5.3842438"
           inkscape:transform-center-y="-9.8718402e-06" /></g></g></g><g
     inkscape:groupmode="layer"
     id="layer3"
     inkscape:label="Capa 3" /></svg>
